<svg width="62" height="62" viewBox="0 0 62 62" fill="none" xmlns="http://www.w3.org/2000/svg">
<g filter="url(#filter0_d_1065_670)">
<rect x="12" y="12" width="36" height="36" rx="18" fill="white"/>
<path d="M39.485 35.6357C39.1295 36.4532 38.7087 37.2058 38.2212 37.8976C37.5567 38.8408 37.0125 39.4937 36.5932 39.8562C35.9432 40.4513 35.2467 40.7561 34.5009 40.7734C33.9655 40.7734 33.3198 40.6218 32.5682 40.3141C31.8141 40.0079 31.1211 39.8562 30.4875 39.8562C29.823 39.8562 29.1102 40.0079 28.3479 40.3141C27.5844 40.6218 26.9693 40.7821 26.4991 40.798C25.7839 40.8283 25.071 40.5149 24.3595 39.8562C23.9053 39.4619 23.3372 38.7859 22.6567 37.8283C21.9266 36.8057 21.3263 35.6198 20.8561 34.2679C20.3524 32.8076 20.1 31.3935 20.1 30.0245C20.1 28.4563 20.4404 27.1038 21.1222 25.9703C21.658 25.0599 22.3709 24.3418 23.2631 23.8146C24.1553 23.2874 25.1193 23.0187 26.1575 23.0015C26.7256 23.0015 27.4705 23.1764 28.3962 23.5202C29.3193 23.8651 29.912 24.0401 30.1719 24.0401C30.3662 24.0401 31.0247 23.8355 32.1409 23.4278C33.1965 23.0496 34.0874 22.8931 34.8172 22.9547C36.7949 23.1136 38.2807 23.8897 39.2688 25.2879C37.5001 26.3547 36.6251 27.8489 36.6425 29.7658C36.6585 31.2589 37.2026 32.5013 38.272 33.4879C38.7566 33.9457 39.2978 34.2996 39.9 34.551C39.7694 34.9279 39.6315 35.289 39.485 35.6357ZM34.9493 17.8681C34.9493 19.0384 34.5198 20.1311 33.6637 21.1424C32.6306 22.3448 31.381 23.0395 30.0259 22.9299C30.0087 22.7895 29.9987 22.6417 29.9987 22.4865C29.9987 21.363 30.49 20.1607 31.3624 19.1776C31.798 18.6799 32.352 18.266 33.0238 17.9359C33.6942 17.6106 34.3282 17.4308 34.9246 17.4C34.942 17.5564 34.9493 17.7129 34.9493 17.8681V17.8681Z" fill="#2B2D36"/>
</g>
<defs>
<filter id="filter0_d_1065_670" x="0" y="0" width="62" height="62" filterUnits="userSpaceOnUse" color-interpolation-filters="sRGB">
<feFlood flood-opacity="0" result="BackgroundImageFix"/>
<feColorMatrix in="SourceAlpha" type="matrix" values="0 0 0 0 0 0 0 0 0 0 0 0 0 0 0 0 0 0 127 0" result="hardAlpha"/>
<feOffset dx="1" dy="1"/>
<feGaussianBlur stdDeviation="6.5"/>
<feComposite in2="hardAlpha" operator="out"/>
<feColorMatrix type="matrix" values="0 0 0 0 0 0 0 0 0 0 0 0 0 0 0 0 0 0 0.1 0"/>
<feBlend mode="normal" in2="BackgroundImageFix" result="effect1_dropShadow_1065_670"/>
<feBlend mode="normal" in="SourceGraphic" in2="effect1_dropShadow_1065_670" result="shape"/>
</filter>
</defs>
</svg>
