<svg width="54" height="51" viewBox="0 0 54 51" fill="none" xmlns="http://www.w3.org/2000/svg">
<path d="M11.6331 44.6771C11.4436 44.6849 11.3774 44.527 11.287 44.4117C10.5284 43.4343 9.77554 42.4525 9.02053 41.4738C9.17419 41.4936 9.28523 41.4094 9.39649 41.3236C12.6833 38.788 15.9716 36.2543 19.2584 33.7187C19.5657 33.4815 19.7954 33.1885 19.8778 32.8001C20.0032 32.2101 19.7465 31.6065 19.2317 31.2802C18.6808 30.9307 18.0705 30.9623 17.5182 31.3869C14.1287 33.9942 10.7422 36.6052 7.3542 39.2144C7.22139 39.204 7.17694 39.0879 7.11148 39.0031C6.42587 38.1182 5.74192 37.2336 5.06175 36.3461C4.98923 36.2501 4.87404 36.169 4.90135 36.0231C5.00679 35.8771 5.10743 35.7288 5.21745 35.5868C7.10596 33.1628 9.12059 30.8536 11.3428 28.7257C12.3907 27.7232 13.5009 26.7916 14.5975 25.8464C15.152 25.2998 15.7931 24.8578 16.4232 24.4093C17.8462 23.3958 19.3354 22.4876 20.8943 21.6971C23.8758 20.1851 27.0017 19.1077 30.3018 18.535C31.8979 18.2587 33.5022 18.0904 35.1203 18.0122C36.2772 17.956 37.0602 18.9808 36.7035 20.0741C36.1873 21.6529 35.6262 23.2123 34.9173 24.7187C33.9293 26.8225 32.74 28.8018 31.3486 30.6633C30.1252 32.3019 28.7498 33.8021 27.2576 35.1939C26.2171 36.1651 25.1404 37.101 23.957 37.9026C23.9503 37.9544 23.9239 37.9748 23.8724 37.9528L23.8847 37.9493C23.8004 37.9979 23.7102 38.0389 23.6331 38.0969C21.1372 39.9245 18.4863 41.4928 15.7107 42.8565C14.375 43.5094 13.0333 44.1565 11.6331 44.6771ZM29.2031 26.3536C29.4814 25.0124 28.3303 23.7738 27.14 23.6287C25.7959 23.4655 24.5176 24.4365 24.3603 25.7747C24.2038 27.1061 25.2839 28.3288 26.4881 28.4842C27.7257 28.6439 29.1666 27.6496 29.2031 26.3536Z" fill="#2559DE"/>
<path d="M7.35606 39.2129C10.7441 36.6037 14.1306 33.9927 17.52 31.3854C18.0723 30.9609 18.6826 30.9292 19.2335 31.2788C19.7467 31.6048 20.005 32.2087 19.8796 32.7987C19.7973 33.1871 19.5676 33.4801 19.2602 33.7172C15.9734 36.2528 12.6852 38.7865 9.39835 41.3221C9.2852 41.4094 9.17583 41.4938 9.02239 41.4723C8.54254 40.8484 8.06269 40.2244 7.58473 39.599C7.49329 39.4785 7.37589 39.3751 7.35606 39.2129Z" fill="#AAE0FF"/>
<path d="M14.5996 25.8432C13.503 26.7885 12.3929 27.7201 11.3449 28.7226C9.12293 30.8488 7.10807 33.1597 5.21957 35.5836C5.10955 35.7257 5.00869 35.8757 4.90347 36.02C4.6969 35.9102 4.58887 35.7077 4.45358 35.5324C3.78521 34.6718 3.12039 33.8101 2.45746 32.9468C1.60709 31.8387 1.86962 30.8962 3.16258 30.377C6.7063 28.9562 10.249 27.5301 13.7925 26.111C14.054 26.0055 14.2875 25.8013 14.5996 25.8432Z" fill="#AAE0FF"/>
<path d="M11.6332 44.6771C13.0315 44.1579 14.3751 43.5094 15.7129 42.8534C18.4866 41.4912 21.1392 39.9231 23.6353 38.0937C23.714 38.036 23.8026 37.9948 23.8869 37.9462C23.2389 39.0207 22.4326 39.9796 21.6914 40.986C19.9987 43.2875 18.2856 45.5762 16.5756 47.8669C15.7896 48.9185 14.7984 48.9281 13.9928 47.8937C13.2542 46.946 12.5231 45.9925 11.792 45.0389C11.7089 44.9331 11.5847 44.8424 11.6332 44.6771Z" fill="#AAE0FF"/>
<path d="M2.30299 46.0034C1.42634 45.8886 1.00408 44.963 1.44511 44.1506C2.17735 42.8051 2.89833 41.4548 3.62411 40.1068C3.67082 40.0211 3.70961 39.9311 3.75799 39.8456C4.01461 39.3965 4.01984 39.3954 4.32679 39.7933C5.48912 41.3 6.65313 42.8069 7.81547 44.3136C8.0902 44.6717 8.07371 44.7205 7.64802 44.8218C6.01864 45.211 4.38802 45.5966 2.75821 45.9891C2.6039 46.027 2.45644 46.0249 2.30299 46.0034Z" fill="#2559DE"/>
<path d="M23.8743 37.9514C23.9258 37.9733 23.9522 37.953 23.9589 37.9012C23.9296 37.9178 23.902 37.9346 23.8743 37.9514Z" fill="#AAE0FF"/>
<path d="M29.2031 26.3536C29.1666 27.6496 27.7258 28.6438 26.4881 28.4842C25.2822 28.3286 24.2021 27.1059 24.3603 25.7747C24.5176 24.4365 25.7959 23.4655 27.14 23.6287C28.3303 23.7738 29.4814 25.0124 29.2031 26.3536Z" fill="#F0F0F0"/>
<g clip-path="url(#clip0_1065_573)">
<path d="M44.8327 2.7587L33.083 11.6303L42.1005 23.5732L53.8501 14.7016L44.8327 2.7587Z" fill="#F8DF6D"/>
<path d="M35.4327 9.85614L33.083 11.6303L42.1005 23.5732L44.4502 21.799L35.4327 9.85614Z" fill="#E75759"/>
<path d="M40.1322 6.30789L37.7825 8.08203L46.8 20.0249L49.1497 18.2508L40.1322 6.30789Z" fill="#E75759"/>
<path d="M44.8326 2.75873L42.4829 4.53287L51.5004 16.4758L53.8501 14.7016L44.8326 2.75873Z" fill="#E75759"/>
<path d="M46.6364 5.14752L34.8867 14.0191L36.6904 16.4079L48.44 7.53634L46.6364 5.14752Z" fill="#E75759"/>
<path d="M50.2428 9.92398L38.4932 18.7956L40.2968 21.1844L52.0465 12.3128L50.2428 9.92398Z" fill="#E75759"/>
<path d="M36.8672 4.44162L38.1424 5.00883L38.7971 3.77554L39.4959 4.98456L40.7504 4.37057L40.6054 5.75879L41.9803 5.99947L41.0463 7.03788L42.0178 8.04102L40.6515 8.33183L40.8479 9.71361L39.5726 9.1464L38.9188 10.3809L38.22 9.17185L36.9656 9.78585L37.1105 8.39762L35.7357 8.15695L36.6697 7.11854L35.6982 6.11539L37.0636 5.8234L36.8672 4.44162Z" fill="url(#paint0_linear_1065_573)"/>
</g>
<defs>
<linearGradient id="paint0_linear_1065_573" x1="34.7553" y1="6.03622" x2="40.0963" y2="4.07271" gradientUnits="userSpaceOnUse">
<stop stop-color="#91C5F7"/>
<stop offset="1" stop-color="#2559DE"/>
</linearGradient>
<clipPath id="clip0_1065_573">
<rect width="14.7227" height="18.4216" fill="white" transform="translate(31 8.87158) rotate(-37.0547)"/>
</clipPath>
</defs>
</svg>
